<?xml version="1.0" encoding="UTF-8"?>
<!DOCTYPE svg PUBLIC "-//W3C//DTD SVG 1.1//EN" "http://www.w3.org/Graphics/SVG/1.1/DTD/svg11.dtd">
<svg xmlns="http://www.w3.org/2000/svg" version="1.1" width="375px" height="375px" style="shape-rendering:geometricPrecision; text-rendering:geometricPrecision; image-rendering:optimizeQuality; fill-rule:evenodd; clip-rule:evenodd" xmlns:xlink="http://www.w3.org/1999/xlink">
<g><path style="opacity:0.992" fill="#000000" d="M 177.5,12.5 C 234.584,117.16 291.584,221.993 348.5,327C 239.498,327.833 130.498,327.667 21.5,326.5C 73.5111,221.811 125.511,117.145 177.5,12.5 Z"/></g>
<g><path style="opacity:1" fill="#ffffff" d="M 181.5,235.5 C 178.833,235.5 176.167,235.5 173.5,235.5C 173.81,232.287 173.477,229.287 172.5,226.5C 171.454,204.495 170.454,182.495 169.5,160.5C 174.5,160.5 179.5,160.5 184.5,160.5C 183.783,185.542 182.783,210.542 181.5,235.5 Z"/></g>
<g><path style="opacity:1" fill="#ffffff" d="M 172.5,226.5 C 173.477,229.287 173.81,232.287 173.5,235.5C 176.167,235.5 178.833,235.5 181.5,235.5C 178.713,236.477 175.713,236.81 172.5,236.5C 172.5,233.167 172.5,229.833 172.5,226.5 Z"/></g>
<g><path style="opacity:1" fill="#ffffff" d="M 170.5,247.5 C 175.167,247.5 179.833,247.5 184.5,247.5C 184.5,252.833 184.5,258.167 184.5,263.5C 179.833,263.5 175.167,263.5 170.5,263.5C 170.5,258.167 170.5,252.833 170.5,247.5 Z"/></g>
</svg>
